<?xml version="1.0" encoding="utf-8"?>
<!-- Generator: Adobe Illustrator 18.1.0, SVG Export Plug-In . SVG Version: 6.00 Build 0)  -->
<!DOCTYPE svg PUBLIC "-//W3C//DTD SVG 1.1//EN" "http://www.w3.org/Graphics/SVG/1.1/DTD/svg11.dtd">
<svg version="1.1" xmlns="http://www.w3.org/2000/svg" xmlns:xlink="http://www.w3.org/1999/xlink" x="0px" y="0px"
	 viewBox="0 0 200 200" enable-background="new 0 0 200 200" xml:space="preserve">
<g id="background">
	<rect fill="#FFF200" width="200" height="200"/>
</g>
<g id="type" display="none">
	
		<text transform="matrix(1 0 0 1 171.0894 188.3437)" display="inline" font-family="'PalatinoLinotype-BoldItalic'" font-size="47.8708">r</text>
	
		<text transform="matrix(1.1 0 0 1 47.8013 170.9202)" display="inline" font-family="'Shruti-Bold'" font-size="110.5801" letter-spacing="-2.7">JS</text>
</g>
<g id="type_outlines">
	<g>
		<path d="M173.9,189.2l-0.5-0.6c1.2-4.2,2.1-7.8,2.7-10.8c0.6-3,0.8-5.2,0.8-6.4c0-0.8-0.2-1.2-0.5-1.2c-0.4,0-1.5,0.6-3.2,1.9
			l-0.4,0l-0.4-0.8l0-0.3c2.7-2.2,4.7-3.7,5.9-4.4c1.2-0.7,2.1-1.1,2.7-1.1c0.5,0,0.8,0.2,1,0.5c0.2,0.4,0.4,0.8,0.4,1.3
			c0,0.5-0.1,1.1-0.2,1.7s-0.7,3.2-1.8,7.7h0.3c0.7-1.7,1.5-3.3,2.3-4.9s1.6-2.8,2.4-3.8c0.8-1,1.5-1.6,2.1-1.9
			c0.6-0.3,1.2-0.5,1.9-0.5c0.4,0,0.8,0.1,1.2,0.2l0.2,0.2c-0.2,0.7-0.5,1.8-0.7,3.1s-0.3,2.4-0.3,3.2l-0.5,0.4
			c-0.7-0.7-1.6-1-2.5-1c-0.8,0-1.5,0.3-2.2,0.8c-0.7,0.5-1.4,1.6-2.3,3.2c-0.8,1.6-1.5,3.5-2.2,5.7c-0.6,2.2-1.1,4.5-1.3,6.9
			c-0.8,0.1-1.7,0.3-2.7,0.4C175.4,188.8,174.6,189,173.9,189.2z"/>
	</g>
	<g>
		<path d="M98,147.1c0,4.6-0.5,8.5-1.5,11.6c-1,3.2-2.6,5.8-4.6,7.8c-2,2-4.5,3.4-7.5,4.3c-3,0.9-6.5,1.4-10.5,1.4
			c-3.6,0-6.8-0.5-9.7-1.5c-2.9-1-5.3-2.4-7.2-4.2s-3.5-4-4.5-6.6c-1-2.6-1.6-5.5-1.6-8.7V149h12.9c0,4.1,0.8,7.3,2.5,9.4
			c1.7,2.1,4.2,3.2,7.6,3.2c2.3,0,4.2-0.3,5.6-1c1.4-0.7,2.5-1.6,3.3-2.9s1.3-2.7,1.5-4.5c0.3-1.7,0.4-3.7,0.4-5.8V97.7H98V147.1z"
			/>
		<path d="M142.9,172.2c-5.5,0-10.4-0.6-14.6-1.7c-4.2-1.2-7.8-2.8-10.7-5c-2.9-2.2-5.1-4.8-6.7-7.9c-1.6-3.1-2.4-6.6-2.6-10.5H121
			c0.2,2.4,1,4.6,2.2,6.5c1.2,1.9,2.8,3.4,4.7,4.6c1.9,1.2,4.1,2.2,6.7,2.8c2.5,0.6,5.2,1,8.1,1c2.7,0,5.2-0.3,7.5-0.8
			c2.3-0.5,4.3-1.3,5.9-2.3c1.6-1,2.9-2.2,3.8-3.6c0.9-1.4,1.4-2.9,1.4-4.6c0-1.9-0.5-3.4-1.4-4.7c-1-1.3-2.4-2.3-4.5-3.3
			c-2-0.9-4.7-1.8-7.8-2.5c-3.2-0.8-7-1.6-11.6-2.5c-4.2-0.9-7.9-1.9-11-3.1c-3.1-1.2-5.7-2.6-7.8-4.3c-2.1-1.7-3.6-3.6-4.6-5.7
			s-1.5-4.6-1.5-7.4c0-3.1,0.7-5.9,2.2-8.4c1.4-2.6,3.5-4.7,6.1-6.5c2.6-1.8,5.8-3.2,9.5-4.2c3.7-1,7.8-1.5,12.3-1.5
			c4.7,0,8.9,0.5,12.7,1.5c3.8,1,7.1,2.4,9.8,4.3c2.7,1.9,4.8,4.2,6.4,7c1.5,2.8,2.4,5.9,2.5,9.4h-13c-1-8-7-12-18.2-12
			c-2.7,0-5,0.3-7.2,0.8c-2.1,0.5-3.9,1.2-5.4,2.1c-1.5,0.9-2.6,2-3.4,3.2c-0.8,1.2-1.2,2.6-1.2,4c0,1.2,0.3,2.3,0.9,3.2
			c0.6,1,1.6,1.9,3,2.7c1.4,0.8,3.2,1.6,5.5,2.3c2.3,0.7,5,1.4,8.4,2.1c2.9,0.6,5.7,1.2,8.5,1.8c2.8,0.6,5.3,1.3,7.8,2.1
			c2.4,0.8,4.6,1.7,6.6,2.8c2,1,3.7,2.3,5.2,3.8s2.6,3.2,3.4,5.2c0.8,2,1.2,4.3,1.2,7c0,3.3-0.8,6.4-2.3,9.1c-1.6,2.7-3.7,5.1-6.5,7
			c-2.8,1.9-6.1,3.4-10,4.5C151.7,171.6,147.5,172.2,142.9,172.2z"/>
	</g>
</g>
</svg>
