<?xml version="1.0" encoding="utf-8"?>
<!-- Generator: Adobe Illustrator 18.1.0, SVG Export Plug-In . SVG Version: 6.00 Build 0)  -->
<!DOCTYPE svg PUBLIC "-//W3C//DTD SVG 1.1//EN" "http://www.w3.org/Graphics/SVG/1.1/DTD/svg11.dtd">
<svg version="1.1" id="Layer_1" xmlns="http://www.w3.org/2000/svg" xmlns:xlink="http://www.w3.org/1999/xlink" x="0px" y="0px"
	 viewBox="0 0 200 200" enable-background="new 0 0 200 200" xml:space="preserve">
<rect fill="#FFF200" width="200" height="200"/>
<g>
	<path d="M97.6,113.6h12.4v39.2c0,5.1-0.4,9.1-1.3,11.8c-1.2,3.6-3.4,6.5-6.6,8.7c-3.2,2.2-7.4,3.3-12.6,3.3
		c-6.1,0-10.8-1.7-14.1-5.1c-3.3-3.4-5-8.4-5-15l11.8-1.4c0.1,3.5,0.7,6.1,1.6,7.5c1.4,2.2,3.4,3.3,6.2,3.3c2.8,0,4.8-0.8,5.9-2.4
		s1.7-4.9,1.7-9.9V113.6z"/>
	<path d="M120.2,155.3l12.1-1.2c0.7,4.1,2.2,7.1,4.5,9c2.2,1.9,5.3,2.9,9.1,2.9c4,0,7-0.9,9.1-2.6s3.1-3.7,3.1-6
		c0-1.5-0.4-2.7-1.3-3.7c-0.9-1-2.4-1.9-4.5-2.7c-1.5-0.5-4.8-1.4-10-2.7c-6.7-1.7-11.4-3.7-14.1-6.1c-3.8-3.4-5.7-7.6-5.7-12.4
		c0-3.2,0.9-6.1,2.7-8.8c1.8-2.7,4.4-4.8,7.7-6.3c3.4-1.4,7.4-2.2,12.2-2.2c7.8,0,13.6,1.7,17.5,5.1c3.9,3.4,6,7.9,6.2,13.6
		l-12.5,0.6c-0.5-3.2-1.7-5.5-3.4-6.9c-1.8-1.4-4.4-2.1-7.9-2.1c-3.6,0-6.5,0.7-8.5,2.2c-1.3,1-2,2.2-2,3.8c0,1.5,0.6,2.7,1.9,3.8
		c1.6,1.3,5.4,2.7,11.5,4.1c6.1,1.4,10.6,2.9,13.5,4.5c2.9,1.5,5.2,3.6,6.8,6.3c1.6,2.7,2.5,5.9,2.5,9.9c0,3.5-1,6.9-3,10
		c-2,3.1-4.8,5.4-8.4,6.9c-3.6,1.5-8.1,2.3-13.5,2.3c-7.8,0-13.8-1.8-18-5.4C123.5,167.5,121,162.2,120.2,155.3z"/>
</g>
<g>
	<path d="M181.1,191.1h-6.9v-25.9h6.4v3.7c1.1-1.7,2.1-2.9,2.9-3.4c0.9-0.6,1.9-0.8,3-0.8c1.6,0,3.1,0.4,4.5,1.3l-2.1,6
		c-1.2-0.7-2.2-1.1-3.2-1.1c-1,0-1.8,0.3-2.4,0.8c-0.7,0.5-1.2,1.5-1.6,2.9c-0.4,1.4-0.6,4.3-0.6,8.7V191.1z"/>
</g>
</svg>
